<?xml version="1.0" standalone="no"?><!DOCTYPE svg PUBLIC "-//W3C//DTD SVG 1.1//EN" "http://www.w3.org/Graphics/SVG/1.1/DTD/svg11.dtd"><svg class="icon" width="200px" height="200.00px" viewBox="0 0 1024 1024" version="1.1" xmlns="http://www.w3.org/2000/svg"><path fill="#333333" d="M480 742.4c-12.8 0-32-6.4-38.4-19.2l-300.8-320c-19.2-19.2-19.2-51.2 0-70.4 6.4-6.4 19.2-12.8 32-12.8 19.2 0 32 6.4 38.4 19.2l268.8 281.6 268.8-281.6c6.4-12.8 19.2-19.2 38.4-19.2 12.8 0 25.6 6.4 32 12.8 19.2 19.2 19.2 51.2 0 70.4l-300.8 320c-12.8 12.8-25.6 19.2-38.4 19.2z" /></svg>