<?xml version="1.0" standalone="no"?><!DOCTYPE svg PUBLIC "-//W3C//DTD SVG 1.1//EN" "http://www.w3.org/Graphics/SVG/1.1/DTD/svg11.dtd"><svg class="icon" width="200px" height="200.00px" viewBox="0 0 1024 1024" version="1.1" xmlns="http://www.w3.org/2000/svg"><path fill="#333333" d="M786.496 3.2 251.008 3.2c-25.088 0-45.44 20.352-45.44 45.504l0 55.424 0 21.76 0 715.136 0 50.624 0 83.648c0 25.152 20.352 45.504 45.44 45.504l78.016 0L496.64 1020.8l44.288 0 167.552 0 78.016 0c25.152 0 45.504-20.352 45.504-45.504l0-107.008 0-27.264L832 125.888 832 80.704l0-32C832 23.552 811.648 3.2 786.496 3.2zM579.776 58.368c8.128-7.936 22.144-7.936 30.336 0C614.016 62.528 616.192 67.84 616.192 73.472c0 5.568-2.176 11.008-6.208 14.912C606.016 92.416 600.512 94.72 595.008 94.72c-5.696 0-11.328-2.304-15.232-6.144-3.84-4.032-6.144-9.536-6.144-15.104C573.632 67.84 575.936 62.336 579.776 58.368zM456.576 52.224l59.008 0c11.776 0 21.312 9.472 21.312 21.312 0 11.712-9.536 21.312-21.312 21.312L456.576 94.848c-11.712 0-21.248-9.6-21.248-21.312C435.328 61.696 444.864 52.224 456.576 52.224zM518.72 978.048c-27.2 0-49.216-22.08-49.216-49.344s22.016-49.344 49.216-49.344c27.264 0 49.28 22.08 49.28 49.344S545.984 978.048 518.72 978.048zM786.688 841.152 250.88 841.152 250.88 142.912l535.808 0L786.688 841.152z" /></svg>