<?xml version="1.0" standalone="no"?><!DOCTYPE svg PUBLIC "-//W3C//DTD SVG 1.1//EN" "http://www.w3.org/Graphics/SVG/1.1/DTD/svg11.dtd"><svg class="icon" width="200px" height="200.00px" viewBox="0 0 1024 1024" version="1.1" xmlns="http://www.w3.org/2000/svg"><path fill="#333333" d="M512 1024C229.7 1024 0 794.3 0 512 0 229.7 229.7 0 512 0c282.3 0 512 229.7 512 512C1024 794.3 794.3 1024 512 1024L512 1024 512 1024zM563.3 512l162.6-162.6c13.1-13.1 13.1-34.6 0-47.7l-3.5-3.5c-13.1-13.1-34.6-13.1-47.7 0L512 460.7 349.4 298.1c-13.1-13.1-34.6-13.1-47.7 0l-3.5 3.5c-13.1 13.1-13.1 34.6 0 47.7L460.7 512 298.1 674.6c-13.1 13.1-13.1 34.6 0 47.7l3.5 3.5c13.1 13.1 34.6 13.1 47.7 0L512 563.3l162.6 162.6c13.1 13.1 34.6 13.1 47.7 0l3.5-3.5c13.1-13.1 13.1-34.6 0-47.7L563.3 512z" /></svg>